<svg width="CurrentWidth" height="CurrentHeight" viewBox="0 0 70 40" fill="currentColor" xmlns="http://www.w3.org/2000/svg">
<path fill-rule="evenodd" clip-rule="evenodd" d="M16.0556 0.278809H46.6516C55.3698 0.278809 62.4621 7.39601 62.4621 16.1441C62.4621 24.8923 55.3698 32.0095 46.6516 32.0095H16.0556C7.33738 32.0095 0.245117 24.8923 0.245117 16.1441C0.245117 7.39601 7.33738 0.278809 16.0556 0.278809ZM30.103 24.8723C30.487 25.2763 31.0556 25.2563 31.5593 25.1516L31.5643 25.1541C31.7981 24.9639 31.4658 24.7231 31.1484 24.493C30.9581 24.3551 30.7731 24.2211 30.7189 24.1042C30.8946 23.8899 30.375 23.4035 29.9704 23.0248C29.8006 22.8658 29.6511 22.7258 29.5818 22.6329C29.2939 22.3196 29.1782 21.9243 29.0618 21.5266C28.9846 21.2627 28.9071 20.9978 28.7788 20.7551C27.9883 18.9197 27.083 17.0992 25.8137 15.5456C24.9979 14.513 24.0669 13.5883 23.1356 12.6633C22.5352 12.0669 21.9347 11.4705 21.3648 10.8449C20.7784 10.2395 20.4255 9.49372 20.072 8.74672C19.7761 8.12134 19.4797 7.49509 19.0456 6.94963C17.7314 5.00449 13.5818 4.47332 12.9733 7.22145C12.9758 7.30624 12.9484 7.3611 12.8735 7.41596C12.5369 7.66285 12.2376 7.94215 11.9858 8.2813C11.3698 9.14165 11.275 10.6005 12.0431 11.3736C12.0442 11.357 12.0453 11.3405 12.0464 11.324C12.0721 10.9336 12.0961 10.5687 12.4047 10.2888C12.9982 10.8 13.8985 10.982 14.5868 10.6005C15.4166 11.7909 15.681 13.2299 15.9462 14.6738C16.1671 15.8767 16.3887 17.0829 16.9384 18.1516C16.9497 18.1705 16.9611 18.1894 16.9725 18.2084C17.2955 18.7463 17.6238 19.2928 18.0381 19.7626C18.1886 19.9959 18.4977 20.2477 18.8062 20.4991C19.2132 20.8309 19.6194 21.1618 19.6591 21.4484C19.6609 21.5731 19.6603 21.6994 19.6598 21.8265C19.6566 22.5791 19.6532 23.3584 20.1354 23.9771C20.4022 24.5182 19.7489 25.0618 19.2227 24.9945C18.9342 25.0345 18.619 24.9585 18.306 24.883C17.8778 24.7797 17.4537 24.6774 17.108 24.8748C17.011 24.9798 16.8716 24.9835 16.7316 24.9872C16.5657 24.9915 16.3987 24.9959 16.3 25.1691C16.2797 25.2206 16.2323 25.2787 16.183 25.3391C16.0748 25.4717 15.9575 25.6155 16.098 25.7252C16.1106 25.7156 16.1231 25.7061 16.1356 25.6965C16.3484 25.5341 16.5513 25.3792 16.8386 25.4758C16.8004 25.6881 16.9375 25.745 17.0745 25.8018C17.0984 25.8117 17.1224 25.8217 17.1454 25.8324C17.1439 25.8817 17.1342 25.9314 17.1245 25.9808C17.1015 26.0986 17.0789 26.2142 17.1703 26.3162C17.2137 26.2721 17.2521 26.2225 17.2905 26.1728C17.3846 26.0512 17.4791 25.929 17.6491 25.8848C18.023 26.384 18.3996 26.1767 18.8721 25.9165C19.4051 25.623 20.0601 25.2623 20.9708 25.7726C20.6217 25.7551 20.3099 25.7975 20.0755 26.0868C20.0182 26.1516 19.9683 26.2264 20.0705 26.3112C20.6094 25.9621 20.8336 26.0876 21.0446 26.2057C21.1969 26.2909 21.3423 26.3723 21.5942 26.2688C21.6538 26.2377 21.7133 26.2056 21.7729 26.1735C22.1775 25.9552 22.5877 25.7339 23.068 25.81C22.7093 25.9134 22.5816 26.1408 22.4423 26.3891C22.3734 26.5118 22.3017 26.6396 22.1977 26.7601C22.1429 26.815 22.1179 26.8798 22.1803 26.9721C22.9315 26.9096 23.2153 26.7191 23.5988 26.4618C23.7818 26.339 23.9875 26.201 24.2775 26.0544C24.5981 25.857 24.9187 25.9832 25.2293 26.1056C25.5664 26.2383 25.8917 26.3664 26.1927 26.0718C26.2878 25.9822 26.4071 25.9811 26.5258 25.98C26.569 25.9796 26.6122 25.9792 26.6541 25.9746C26.5604 25.4727 26.0319 25.4786 25.4955 25.4846C24.875 25.4915 24.2438 25.4986 24.2626 24.7202C24.8391 24.3265 24.8444 23.6431 24.8494 22.9972C24.8507 22.8413 24.8518 22.6876 24.8611 22.5406C25.2851 22.7771 25.7336 22.9619 26.1794 23.1455C26.5987 23.3183 27.0156 23.49 27.4072 23.7027C27.8162 24.3611 28.4546 25.2339 29.305 25.1766C29.3274 25.1092 29.3474 25.0519 29.3723 24.9845C29.4213 24.9931 29.4731 25.0062 29.5257 25.0195C29.7489 25.0761 29.9879 25.1366 30.103 24.8723ZM46.7702 17.3907C47.2625 17.8819 47.9304 18.1579 48.6267 18.1579C49.323 18.1579 49.9909 17.8819 50.4832 17.3907C50.9756 16.8995 51.2523 16.2333 51.2523 15.5387C51.2523 14.844 50.9756 14.1778 50.4832 13.6866C49.9909 13.1954 49.323 12.9194 48.6267 12.9194C48.3006 12.9194 47.9807 12.98 47.6822 13.0948L46.1773 10.8981L45.1285 11.6167L46.6412 13.8248C46.2297 14.2992 46.0011 14.9072 46.0011 15.5387C46.0011 16.2333 46.2778 16.8995 46.7702 17.3907ZM42.0587 10.2769C42.4271 10.459 42.8332 10.5522 43.2443 10.549C43.8053 10.5447 44.3501 10.3613 44.7989 10.0256C45.2478 9.68993 45.577 9.21968 45.7385 8.68375C45.9 8.14782 45.8851 7.57439 45.6961 7.04749C45.5072 6.52059 45.154 6.06792 44.6884 5.75581C44.3471 5.52707 43.9568 5.38147 43.5488 5.33074C43.1409 5.28 42.7266 5.32556 42.3396 5.46372C41.9525 5.60189 41.6033 5.82881 41.3202 6.12621C41.0371 6.42362 40.8279 6.78319 40.7096 7.17597C40.5913 7.56875 40.567 7.98376 40.6389 8.38759C40.7107 8.79142 40.8766 9.17277 41.1233 9.50093C41.3699 9.8291 41.6903 10.0949 42.0587 10.2769ZM42.0587 25.4864C42.4271 25.6684 42.8332 25.7616 43.2443 25.7585C43.8053 25.7542 44.3501 25.5707 44.7989 25.2351C45.2478 24.8994 45.577 24.4291 45.7385 23.8932C45.9 23.3573 45.8851 22.7838 45.6961 22.2569C45.5072 21.73 45.154 21.2774 44.6884 20.9653C44.3471 20.7365 43.9568 20.5909 43.5488 20.5402C43.1409 20.4895 42.7266 20.535 42.3396 20.6732C41.9525 20.8114 41.6033 21.0383 41.3202 21.3357C41.0371 21.6331 40.8279 21.9926 40.7096 22.3854C40.5913 22.7782 40.567 23.1932 40.6389 23.597C40.7107 24.0009 40.8766 24.3822 41.1233 24.7104C41.3699 25.0386 41.6903 25.3044 42.0587 25.4864ZM44.4725 16.1899V14.8877H40.454C40.3529 14.4928 40.1601 14.1271 39.8911 13.8199L41.4029 11.5801L40.3034 10.8509L38.7916 13.0906C38.5145 12.9905 38.2224 12.9377 37.9277 12.9344C37.2333 12.9344 36.5675 13.2088 36.0765 13.6972C35.5856 14.1856 35.3097 14.848 35.3097 15.5388C35.3097 16.2295 35.5856 16.8919 36.0765 17.3804C36.5675 17.8688 37.2333 18.1432 37.9277 18.1432C38.2224 18.1398 38.5145 18.087 38.7916 17.9869L40.3034 20.2267L41.3899 19.4974L39.8911 17.2577C40.1601 16.9504 40.3529 16.5847 40.454 16.1899H44.4725Z" fill="currentColor"></path>
<path d="M149.001 7.88732C147.637 6.80254 145.756 6.25391 143.412 6.25391C141.721 6.25391 140.183 6.65291 138.839 7.43844C137.494 8.22398 136.42 9.37111 135.647 10.8449C134.871 12.3212 134.479 14.1242 134.479 16.2065C134.479 17.795 134.711 19.224 135.17 20.4534C135.627 21.6803 136.273 22.7302 137.085 23.5756C137.898 24.4185 138.856 25.0669 139.933 25.5033C141.011 25.9397 142.183 26.1591 143.415 26.1591C145.255 26.1591 146.856 25.7576 148.175 24.9671C149.494 24.1766 150.519 23.0694 151.228 21.6753C151.936 20.2788 152.295 18.6604 152.295 16.8624C152.295 16.81 152.29 16.6454 152.282 16.3686C152.275 16.1467 152.265 15.9646 152.253 15.83H145.599V18.1741H149.016L149.001 18.2813C148.839 19.396 148.519 20.3387 148.051 21.0843C147.579 21.8325 146.961 22.3985 146.218 22.7651C145.475 23.1317 144.592 23.3137 143.617 23.3038C142.31 23.2863 141.203 22.9796 140.33 22.3911C139.457 21.8025 138.794 20.9721 138.36 19.9172C137.928 18.8699 137.709 17.6205 137.709 16.204C137.709 14.7876 137.931 13.5307 138.365 12.4709C138.804 11.406 139.465 10.5656 140.335 9.9771C141.205 9.38857 142.312 9.09929 143.617 9.11675C144.918 9.11675 146.006 9.46837 146.849 10.1616C147.672 10.8374 148.275 11.7477 148.649 12.8674L151.764 12.3736C151.273 10.4609 150.345 8.94967 149.001 7.88233V7.88732Z" fill="currentColor"></path>
<path d="M189.434 11.9797C188.429 11.3138 187.245 10.9822 185.878 10.9822C184.512 10.9822 183.35 11.3138 182.417 11.9797C182.225 12.1168 182.048 12.264 181.876 12.4211V11.3837H179.023V32.2789H182.277V25.1143C182.335 25.1592 182.392 25.2041 182.452 25.2465C183.407 25.9173 184.589 26.2515 186 26.2515C187.33 26.2515 188.492 25.9173 189.482 25.2465C190.472 24.5757 191.24 23.6655 191.786 22.5133C192.33 21.3612 192.604 20.062 192.604 18.6156C192.604 17.1692 192.327 15.845 191.774 14.6979C191.22 13.5508 190.442 12.6455 189.437 11.9797H189.434ZM188.791 21.0221C188.527 21.7403 188.123 22.3113 187.579 22.7303C187.035 23.1493 186.342 23.3587 185.502 23.3587C184.661 23.3587 183.936 23.1592 183.404 22.7627C182.873 22.3662 182.484 21.8101 182.24 21.0944C181.993 20.3812 181.871 19.5532 181.871 18.6156C181.871 17.6779 181.993 16.84 182.24 16.1318C182.484 15.4211 182.868 14.8675 183.385 14.471C183.903 14.0744 184.572 13.8749 185.394 13.8749C186.26 13.8749 186.976 14.0869 187.537 14.5109C188.1 14.9348 188.514 15.5059 188.784 16.2266C189.05 16.9448 189.185 17.7428 189.185 18.6181C189.185 19.4934 189.053 20.3039 188.791 21.0221Z" fill="currentColor"></path>
<path d="M207.579 16.4134C207.522 15.8548 207.395 15.2638 207.198 14.6378C207.001 14.0119 206.696 13.4234 206.287 12.8698C205.876 12.3162 205.322 11.8598 204.627 11.5032C203.931 11.1466 203.045 10.967 201.976 10.967C200.619 10.967 199.474 11.2638 198.547 11.8573C198.048 12.1765 197.617 12.5556 197.247 12.992V6.56055H194.367V25.8473H197.637V18.4134C197.637 17.5306 197.734 16.8049 197.931 16.2363C198.128 15.6703 198.387 15.2239 198.714 14.8972C199.041 14.5705 199.405 14.3411 199.806 14.2064C200.208 14.0718 200.614 14.0044 201.026 14.0044C201.794 14.0044 202.402 14.169 202.853 14.5007C203.305 14.8324 203.644 15.2538 203.871 15.7675C204.098 16.2812 204.242 16.8149 204.307 17.3685C204.37 17.9221 204.402 18.4259 204.402 18.8822V25.8473H207.671V17.77C207.671 17.4209 207.641 16.9695 207.584 16.4109L207.579 16.4134Z" fill="currentColor"></path>
<path d="M161.861 11.5108C161.417 11.5408 160.981 11.6255 160.559 11.7602C160.138 11.8949 159.751 12.0819 159.405 12.3138C158.996 12.5657 158.644 12.8874 158.355 13.2714C158.227 13.441 158.11 13.6231 157.996 13.825L157.876 14.037V11.5707H155.185V25.7303H158.26V18.5308C158.26 17.9822 158.327 17.461 158.459 16.9846C158.594 16.5083 158.804 16.0744 159.085 15.7004C159.367 15.3238 159.736 15.0121 160.185 14.7702C160.629 14.5034 161.14 14.3438 161.699 14.2989C162.22 14.2565 162.691 14.2914 163.103 14.3986V11.5607C162.701 11.4984 162.285 11.4809 161.861 11.5108Z" fill="currentColor"></path>
</svg>